PathFileType	4	(X/Y/Z)	C:/Users/opensim2020/Desktop/walking_exp_matlab/subject02_walking07_straight_03.trc																																																																																																																																																				
DataRate	CameraRate	NumFrames	NumMarkers	Units	OrigDataRate	OrigDataStartFrame	OrigNumFrames																																																																																																																																																
100	100	8	50	mm	100	2170	203																																																																																																																																																
Frame#	Time	LFHD			RFHD			LBHD			RBHD			C7			T10			CLAV			STRN			RBAK			LSHO			LUPA			LELB			LFRM			LWRA			LWRB			LFIN			RSHO			RUPA			RELB			RFRM			RWRA			RWRB			RFIN			LASI			RASI			LPSI			RPSI			LTHI			LKNE			LTIB			LANK			LHEE			LTOE			RTHI			RKNE			RTIB			RANK			RHEE			RTOE			*39			*40			*41			*42			*43			*44			*45			*46			*47			*48			*49		
		X1	Y1	Z1	X2	Y2	Z2	X3	Y3	Z3	X4	Y4	Z4	X5	Y5	Z5	X6	Y6	Z6	X7	Y7	Z7	X8	Y8	Z8	X9	Y9	Z9	X10	Y10	Z10	X11	Y11	Z11	X12	Y12	Z12	X13	Y13	Z13	X14	Y14	Z14	X15	Y15	Z15	X16	Y16	Z16	X17	Y17	Z17	X18	Y18	Z18	X19	Y19	Z19	X20	Y20	Z20	X21	Y21	Z21	X22	Y22	Z22	X23	Y23	Z23	X24	Y24	Z24	X25	Y25	Z25	X26	Y26	Z26	X27	Y27	Z27	X28	Y28	Z28	X29	Y29	Z29	X30	Y30	Z30	X31	Y31	Z31	X32	Y32	Z32	X33	Y33	Z33	X34	Y34	Z34	X35	Y35	Z35	X36	Y36	Z36	X37	Y37	Z37	X38	Y38	Z38	X39	Y39	Z39	X40	Y40	Z40	X41	Y41	Z41	X42	Y42	Z42	X43	Y43	Z43	X44	Y44	Z44	X45	Y45	Z45	X46	Y46	Z46	X47	Y47	Z47	X48	Y48	Z48	X49	Y49	Z49	X50	Y50	Z50
																																																																																																																																																							
178	1.77	725.21747	1766.61597	1355.63916	747.14844	1750.12415	1497.02405	621.77948	1657.04016	1360.16199	631.91907	1635.3678	1501.17114	600.53638	1527.74048	1429.96997	562.79248	1251.44116	1433.45532	743.2605	1467.573	1410.12402	805.00311	1297.97095	1418.78088	555.94153	1353.39661	1495.36389	665.75043	1503.32019	1244.04346	684.78271	1301.59326	1159.51526	712.14056	1163.06665	1146.07117	758.39899	1038.90088	1136.43542	841.84338	933.72833	1177.34692	802.00085	923.93018	1138.66052	838.24396	868.24182	1138.28943	693.81616	1500.46521	1610.44421	684.62085	1306.41162	1694.63721	714.45581	1163.42651	1712.21545	756.48682	1051.24109	1731.90588	812.06952	927.54816	1707.83276	772.26172	922.77417	1748.57007	811.67029	860.06671	1743.71802	796.6167	1000.30682	1290.09021	803.22083	986.18695	1544.3595	588.70068	1037.96814	1374.71606	586.38727	1034.79309	1489.72949	741.65491	680.50104	1252.68164	715.1087	479.51871	1295.66296	661.33789	291.30234	1310.97632	668.70679	71.63491	1362.0824	636.57977	44.68246	1417.23401	823.24048	39.42739	1340.05164	787.37042	685.1059	1629.40906	828.14191	489.62555	1612.58655	709.97174	348.51611	1612.10132	609.83307	184.42456	1578.3927	566.01416	144.47755	1515.97876	708.6319	66.29662	1620.72485	619.51331	1799.99524	1457.8269	2845.87524	1034.06226	-3357.38184	NaN	NaN	NaN	NaN	NaN	NaN	NaN	NaN	NaN	NaN	NaN	NaN	NaN	NaN	NaN	NaN	NaN	NaN	NaN	NaN	NaN	NaN	NaN	NaN	NaN	NaN	NaN
179	1.78	734.36884	1766.81665	1355.02087	756.57446	1750.30615	1496.41968	630.92627	1657.37756	1359.76501	641.14996	1635.78284	1500.77832	609.38397	1528.10278	1429.32251	571.01654	1252.04431	1433.1189	752.06262	1467.83691	1409.60461	813.40216	1298.03613	1417.77673	564.38489	1353.78345	1494.60889	674.63837	1504.07788	1243.51733	696.04071	1303.25317	1158.2843	726.41309	1165.10986	1144.42993	775.63147	1041.98242	1135.43323	861.82294	939.12988	1176.66052	822.43469	928.29559	1137.7854	860.10468	873.70856	1137.56262	702.73474	1500.43335	1609.93018	691.68121	1306.77966	1694.45496	719.70203	1163.46667	1712.06738	760.03815	1050.64404	1731.99902	814.18396	926.26538	1708.53149	774.06738	922.06146	1749.01782	812.86108	858.83716	1744.54736	802.54303	1000.11829	1288.51062	812.00275	987.13568	1542.29858	596.51355	1038.06946	1375.47107	594.64362	1035.7489	1490.50854	745.40869	680.04095	1252.52869	718.05914	479.38541	1296.15491	663.21942	291.45761	1311.04639	668.88641	71.73716	1362.33093	636.48212	44.84349	1417.44714	823.27411	39.24189	1339.83801	800.39459	687.29974	1628.87695	844.09479	491.75323	1611.36108	731.75488	345.37393	1612.87366	637.79956	177.13405	1580.79468	594.69421	134.86224	1519.0448	742.57568	63.83579	1621.5376	629.0871	1800.38013	1457.64099	2845.18066	1033.97803	-3360.2644	NaN	NaN	NaN	NaN	NaN	NaN	NaN	NaN	NaN	NaN	NaN	NaN	NaN	NaN	NaN	NaN	NaN	NaN	NaN	NaN	NaN	NaN	NaN	NaN	NaN	NaN	NaN
180	1.79	743.59509	1766.92725	1354.54187	766.01624	1750.42896	1495.82068	640.08356	1657.60608	1359.39587	650.39496	1636.09045	1500.47424	618.48743	1528.53601	1429.04785	579.22382	1252.36267	1432.6543	760.91309	1467.96863	1409.16101	821.78864	1298.00378	1416.74695	573.03113	1354.26147	1494.12305	683.7699	1504.95679	1243.30298	708.31421	1304.81714	1157.82605	740.73877	1167.21558	1143.35449	792.98621	1045.10889	1134.43201	881.51257	944.66602	1175.99719	842.47852	932.71558	1137.04102	881.6236	879.15387	1136.85144	711.66675	1500.2406	1609.4364	698.33221	1306.69971	1693.89905	724.86377	1163.30334	1711.76819	763.76508	1050.07996	1732.14709	816.78595	925.04395	1709.43408	776.00031	921.17896	1749.375	814.26208	857.79614	1745.56177	808.67133	999.76563	1286.93433	820.82623	987.86237	1540.27271	603.71332	1038.32349	1376.1554	603.04126	1036.65479	1491.30481	749.36798	679.47314	1252.38867	721.33655	479.09622	1296.66724	664.96375	291.61588	1311.33215	669.06982	71.82386	1362.59534	636.48663	45.09527	1417.59338	823.46771	39.17942	1339.75574	812.89648	689.11755	1628.14429	859.46051	493.50262	1609.59949	753.51892	342.1293	1613.6001	666.21307	169.48668	1583.04956	623.93317	125.1404	1522.40686	777.17438	61.9479	1622.29065	638.45618	1800.69934	1457.03455	2845.94727	1034.05237	-3357.42871	NaN	NaN	NaN	NaN	NaN	NaN	NaN	NaN	NaN	NaN	NaN	NaN	NaN	NaN	NaN	NaN	NaN	NaN	NaN	NaN	NaN	NaN	NaN	NaN	NaN	NaN	NaN
181	1.8	752.79242	1766.98962	1354.03467	775.55652	1750.42542	1495.35962	649.04291	1657.90479	1359.21106	659.86035	1636.35706	1500.43677	627.49255	1528.73364	1428.69409	587.64063	1252.9491	1432.74084	769.78131	1467.96973	1408.68396	830.2486	1297.85083	1415.76257	581.65546	1354.6687	1493.50012	692.87683	1505.60938	1242.99268	719.54724	1306.32507	1156.83789	754.56195	1169.17017	1141.83618	810.10999	1048.39563	1133.2655	900.81836	950.26178	1175.36584	862.24164	937.17828	1136.44702	902.66608	884.67572	1136.2804	720.66663	1500.00549	1609.1095	705.05688	1306.67151	1693.44812	730.20428	1163.01892	1711.55518	767.6322	1049.42859	1732.50696	819.42383	923.84399	1710.39954	778.26923	920.44055	1749.92505	815.99982	856.62598	1746.59167	814.58929	999.0509	1285.26758	829.7149	988.22815	1538.323	610.93616	1038.47498	1376.84631	611.46069	1037.44849	1492.14429	753.61633	678.9043	1252.18433	723.88776	478.77991	1296.6156	666.55688	291.86765	1311.78125	669.29449	71.90793	1362.87292	636.41534	44.88425	1417.66711	823.52539	38.99456	1339.60962	824.99548	690.77362	1627.39148	874.31708	494.97052	1608.07947	775.0639	338.62683	1614.28406	695.29974	162.29773	1585.78809	653.93164	115.72736	1526.10083	812.17316	60.57547	1622.80859	648.00256	1800.78162	1456.73315	NaN	NaN	NaN	NaN	NaN	NaN	NaN	NaN	NaN	NaN	NaN	NaN	NaN	NaN	NaN	NaN	NaN	NaN	NaN	NaN	NaN	NaN	NaN	NaN	NaN	NaN	NaN	NaN	NaN	NaN
182	1.81	762.13995	1766.77515	1353.58533	785.07098	1750.2843	1494.84082	658.15967	1657.95923	1359.05127	669.04559	1636.38513	1499.974	636.49353	1528.89734	1428.40051	595.9278	1253.05591	1432.57178	778.67444	1467.85449	1408.2948	838.69598	1297.5321	1414.72974	590.42157	1354.77734	1493.20044	701.96704	1506.11304	1242.75647	730.72632	1307.70972	1156.00098	768.25861	1171.02234	1140.57739	826.76129	1051.698	1132.50195	919.77142	955.86224	1174.80884	881.198	941.64996	1136.08362	923.31732	890.2594	1135.84314	729.6626	1499.47009	1608.65576	711.8631	1306.62732	1693.15527	735.48981	1162.50549	1711.21667	771.74231	1048.724	1732.80945	822.33997	922.6087	1711.41663	780.7879	919.64081	1750.57727	817.91644	855.51434	1747.68188	820.71515	998.15692	1283.73486	838.63208	988.36945	1536.49927	618.21954	1038.35986	1377.56396	619.95605	1037.97083	1492.94775	758.02728	678.39954	1252.11536	726.75909	478.69077	1296.72742	668.04926	292.0878	1312.23206	669.35571	72.14462	1363.22815	636.70776	45.50177	1417.99939	823.89905	38.85545	1339.65564	836.67047	692.1709	1626.63403	888.62177	496.26508	1606.72717	796.44659	335.03296	1615.10181	724.67743	155.05946	1588.50623	684.29108	106.22113	1529.53076	847.34766	59.49459	1622.90881	657.64832	1801.07153	1456.69153	NaN	NaN	NaN	NaN	NaN	NaN	NaN	NaN	NaN	NaN	NaN	NaN	NaN	NaN	NaN	NaN	NaN	NaN	NaN	NaN	NaN	NaN	NaN	NaN	NaN	NaN	NaN	NaN	NaN	NaN
183	1.82	771.53638	1766.53894	1353.26807	794.64008	1750.03955	1494.4408	667.31262	1657.90808	1358.92395	678.55377	1636.43408	1500.04346	645.60748	1528.8645	1428.14063	604.39075	1253.40967	1432.85608	787.63544	1467.63049	1407.95923	847.25903	1297.07458	1413.79333	599.03888	1354.85901	1492.75903	711.05682	1506.54846	1242.53662	742.35931	1308.95996	1155.46936	781.79352	1172.88013	1139.69153	842.59698	1054.5061	1132.26379	938.32324	961.43726	1174.38794	900.40552	946.17706	1135.60278	943.66559	896.01477	1135.51477	738.71222	1498.89978	1608.29919	718.62061	1306.38489	1692.82751	741.20587	1162.22083	1711.41968	775.86255	1047.87354	1733.06543	825.21527	921.22546	1712.36401	783.61487	918.85651	1751.35767	820.16223	854.38623	1748.89514	827.64008	997.32666	1282.29688	847.62347	988.23944	1534.8457	624.94299	1038.4126	1378.18982	628.41016	1038.13464	1493.58167	762.58466	677.81989	1252.08447	729.82587	478.41248	1296.88245	669.47516	292.35165	1312.73254	669.45422	72.33572	1363.547	636.78217	45.63879	1418.26953	824.03076	38.87992	1339.60828	847.9162	693.19476	1625.7135	902.32709	497.23804	1605.48181	817.72882	331.46271	1616.11389	754.47314	148.1205	1591.25732	715.15204	96.92907	1533.14038	882.60229	58.86915	1622.63159	667.15802	1800.97253	1456.28577	NaN	NaN	NaN	NaN	NaN	NaN	NaN	NaN	NaN	NaN	NaN	NaN	NaN	NaN	NaN	NaN	NaN	NaN	NaN	NaN	NaN	NaN	NaN	NaN	NaN	NaN	NaN	NaN	NaN	NaN
184	1.83	780.81073	1766.12109	1352.81665	804.27081	1749.63232	1494.07605	676.46942	1657.69714	1358.81812	687.81525	1636.19397	1499.71289	654.64679	1528.63196	1427.76282	612.91492	1253.43811	1432.99573	796.60535	1467.2207	1407.59924	855.85712	1296.54626	1412.88708	607.88519	1354.72754	1492.38684	720.21277	1506.78577	1242.38855	753.13904	1310.08899	1154.76062	794.93445	1174.49976	1138.29199	858.68793	1057.547	1130.94934	956.44897	967.06604	1174.02014	918.50806	950.427	1135.27698	963.45557	901.58789	1135.2312	747.82855	1498.26929	1608.13953	725.29919	1305.82593	1692.08838	746.92853	1161.71167	1711.45947	780.35596	1047.12439	1733.7168	828.71393	919.91278	1713.56372	786.64478	917.99683	1752.10901	822.65881	853.24487	1750.15613	833.47699	995.95441	1280.50952	856.70313	987.98071	1533.4823	632.94531	1038.20496	1379.29602	637.05994	1038.27441	1494.57751	766.96808	677.30493	1252.21558	732.84882	478.01773	1296.97656	670.99414	292.62418	1313.10315	669.58984	72.45291	1363.84106	636.74542	45.79858	1418.5022	824.08032	38.7699	1339.52686	859.11945	694.3772	1625.23279	915.36688	497.9415	1603.95679	838.91901	328.07919	1617.10925	784.45764	141.47462	1593.96191	746.50226	88.83529	1537.15234	917.9978	59.12427	1622.29041	676.81073	1800.83374	1456.17236	NaN	NaN	NaN	NaN	NaN	NaN	NaN	NaN	NaN	NaN	NaN	NaN	NaN	NaN	NaN	NaN	NaN	NaN	NaN	NaN	NaN	NaN	NaN	NaN	NaN	NaN	NaN	NaN	NaN	NaN
185	1.84	790.27148	1765.67261	1352.5968	813.948	1749.10706	1493.73254	685.65967	1657.54102	1358.79272	697.30206	1635.97205	1499.6626	663.86005	1528.5083	1427.81958	621.46167	1253.32263	1433.2417	805.6615	1466.72498	1407.3938	864.45087	1295.86267	1412.03516	615.03363	1354.66113	1492.30774	729.3363	1506.92114	1242.31299	764.71533	1311.01599	1154.42188	807.98383	1176.10583	1137.42444	874.38409	1060.42493	1130.69763	974.14948	972.3855	1173.6355	936.71356	954.76886	1135.28406	982.96588	907.24536	1135.08313	756.90784	1497.36682	1607.86792	732.43665	1305.52075	1691.99646	752.64679	1161.01685	1711.3822	785.00977	1046.30762	1734.20142	832.38208	918.66467	1714.77295	790.15533	917.33282	1753.19824	825.42084	852.11334	1751.47656	840.03064	994.7326	1279.09314	865.81757	987.57007	1532.29712	640.57458	1037.76978	1380.28979	645.67737	1037.9707	1495.33777	771.49146	676.71796	1252.20813	736.24231	477.77512	1297.25269	672.73047	292.80478	1313.39734	669.78711	72.57386	1364.08606	636.63129	46.20119	1418.74377	824.02509	38.63427	1339.35327	869.5647	694.64001	1624.35486	927.76764	498.15533	1602.67297	859.89618	324.71658	1618.04517	814.88226	135.39589	1596.70911	778.19788	80.64774	1540.88574	953.28076	60.07416	1621.62622	686.60443	1800.69421	1456.32275	NaN	NaN	NaN	NaN	NaN	NaN	NaN	NaN	NaN	NaN	NaN	NaN	NaN	NaN	NaN	NaN	NaN	NaN	NaN	NaN	NaN	NaN	NaN	NaN	NaN	NaN	NaN	NaN	NaN	NaN
